<svg width="1440" height="1030" viewBox="0 0 1440 1030" fill="none" xmlns="http://www.w3.org/2000/svg">
<g clip-path="url(#clip0)">
<rect width="1440" height="1030" fill="white"/>
<path opacity="0.16" fill-rule="evenodd" clip-rule="evenodd" d="M1429.69 -2C1429.69 -2 1461.1 187.911 1318.96 251.125V251.125C1176.83 314.339 960.056 226.822 755.65 350.686V350.686C539.599 481.606 445.901 1204.58 -5 858.552V858.552V1033H1528V-2H1429.69Z" fill="url(#paint0_linear)"/>
<g clip-path="url(#clip1)">
<g opacity="0.2">
<path opacity="0.2" d="M1337.16 922.055H1350.3C1348.83 910.429 1348.83 898.802 1350.3 887.176H1337.16C1338.62 898.802 1338.62 910.429 1337.16 922.055Z" fill="#BF3AC9"/>
<path opacity="0.2" d="M1295.41 933.681L1307 927.17C1299.81 917.947 1293.86 907.948 1289.22 897.252L1277.62 903.763C1284.81 913.064 1290.77 922.985 1295.41 933.681Z" fill="#BF3AC9"/>
<path opacity="0.2" d="M1269.58 968.559L1276.08 956.933C1265.41 952.283 1255.43 946.392 1246.23 939.106L1239.74 950.733C1250.41 955.383 1260.31 961.351 1269.58 968.559Z" fill="#BF3AC9"/>
<path opacity="0.2" d="M1261.39 1009.64V996.462C1249.25 997.935 1237.19 997.935 1225.05 996.462V1009.64C1237.19 1008.17 1249.25 1008.17 1261.39 1009.64Z" fill="#BF3AC9"/>
<path opacity="0.2" d="M1427.61 996.462V1009.64C1439.75 1008.17 1451.81 1008.17 1463.95 1009.64V996.462C1451.81 997.935 1439.75 997.935 1427.61 996.462Z" fill="#BF3AC9"/>
<path opacity="0.2" d="M1412.92 956.933L1419.42 968.559C1428.62 961.351 1438.59 955.383 1449.26 950.733L1442.77 939.106C1433.49 946.315 1423.59 952.283 1412.92 956.933Z" fill="#BF3AC9"/>
<path opacity="0.2" d="M1382 927.17L1393.59 933.681C1398.23 922.985 1404.19 912.986 1411.38 903.763L1399.78 897.252C1395.14 907.948 1389.19 917.869 1382 927.17Z" fill="#BF3AC9"/>
<path opacity="0.2" d="M1437.66 1003.83C1437.66 1055.37 1395.6 1097.22 1343.73 1097.22C1291.85 1097.22 1249.79 1055.45 1249.79 1003.83C1249.79 952.205 1291.85 910.429 1343.73 910.429C1395.6 910.429 1437.66 952.283 1437.66 1003.83Z" fill="#BF3AC9"/>
<path opacity="0.2" d="M1437.66 1003.83C1437.66 1015.06 1435.65 1025.76 1432.02 1035.76C1429.7 1042.04 1426.76 1048.08 1423.13 1053.66C1411.61 1071.88 1393.9 1085.75 1372.95 1092.57C1363.75 1095.59 1353.93 1097.22 1343.65 1097.22C1291.85 1097.22 1249.79 1055.37 1249.79 1003.83C1249.79 993.672 1251.41 983.906 1254.43 974.683C1261.31 953.91 1275.3 936.316 1293.55 924.845C1299.19 921.28 1305.22 918.334 1311.56 916.009C1321.62 912.366 1332.36 910.429 1343.73 910.429C1395.6 910.429 1437.66 952.205 1437.66 1003.83Z" fill="#BF3AC9"/>
<path opacity="0.2" d="M1378.13 1063.66C1378.13 1073.97 1376.51 1083.97 1373.49 1093.35C1364.29 1096.37 1354.4 1098.07 1344.11 1098.07C1292 1098.07 1249.79 1055.52 1249.79 1002.97C1249.79 992.664 1251.41 982.665 1254.51 973.287C1263.78 970.264 1273.6 968.559 1283.89 968.559C1335.92 968.559 1378.13 1011.11 1378.13 1063.66Z" fill="#BF3AC9"/>
<path opacity="0.2" d="M1439.21 1002.97C1439.21 1014.29 1437.2 1025.14 1433.56 1035.14C1431.25 1041.49 1428.31 1047.54 1424.75 1053.2C1410.22 1062.42 1393.05 1067.69 1374.65 1067.69C1322.77 1067.77 1280.72 1025.6 1280.72 973.675C1280.72 955.228 1286.05 937.944 1295.17 923.45C1300.82 919.884 1306.85 916.862 1313.19 914.536C1323.24 910.894 1334.06 908.878 1345.35 908.878C1397.15 908.878 1439.21 951.043 1439.21 1002.97Z" fill="#F646FF"/>
<path opacity="0.2" d="M1366.53 949.57C1366.53 953.678 1363.21 956.933 1359.19 956.933C1355.17 956.933 1351.84 953.678 1351.84 949.57C1351.84 945.539 1355.17 942.207 1359.19 942.207C1363.21 942.207 1366.53 945.539 1366.53 949.57Z" fill="#BF3AC9"/>
<path opacity="0.2" d="M1419.11 1018.55C1419.11 1022.58 1415.78 1025.91 1411.76 1025.91C1407.74 1025.91 1404.42 1022.58 1404.42 1018.55C1404.42 1014.52 1407.67 1011.19 1411.76 1011.19C1415.78 1011.19 1419.11 1014.52 1419.11 1018.55Z" fill="#BF3AC9"/>
<path opacity="0.2" d="M1295.41 997.237C1295.41 1004.91 1289.14 1011.19 1281.49 1011.19C1273.84 1011.19 1267.57 1004.91 1267.57 997.237C1267.57 989.564 1273.84 983.286 1281.49 983.286C1289.14 983.286 1295.41 989.564 1295.41 997.237Z" fill="#BF3AC9"/>
<path opacity="0.2" d="M1375.04 979.41C1375.04 985.378 1370.17 990.261 1364.21 990.261C1358.26 990.261 1353.39 985.378 1353.39 979.41C1353.39 973.442 1358.26 968.559 1364.21 968.559C1370.17 968.559 1375.04 973.442 1375.04 979.41Z" fill="#BF3AC9"/>
<path opacity="0.2" d="M1320.15 953.833C1320.15 961.119 1314.27 967.009 1307 967.009C1299.74 967.009 1293.86 961.119 1293.86 953.833C1293.86 946.547 1299.74 940.657 1307 940.657C1314.27 940.657 1320.15 946.547 1320.15 953.833Z" fill="#BF3AC9"/>
<path opacity="0.2" d="M1345.66 932.518C1345.66 935.696 1343.03 938.331 1339.86 938.331C1336.69 938.331 1334.06 935.696 1334.06 932.518C1334.06 929.34 1336.69 926.705 1339.86 926.705C1343.03 926.705 1345.66 929.34 1345.66 932.518Z" fill="#BF3AC9"/>
<path opacity="0.2" d="M1411.38 959.646C1411.38 962.824 1408.75 965.459 1405.58 965.459C1402.41 965.459 1399.78 962.824 1399.78 959.646C1399.78 956.468 1402.41 953.833 1405.58 953.833C1408.75 953.833 1411.38 956.468 1411.38 959.646Z" fill="#BF3AC9"/>
<path opacity="0.2" d="M1426.07 977.473C1426.07 980.651 1423.13 983.286 1419.49 983.286C1415.86 983.286 1412.92 980.651 1412.92 977.473C1412.92 974.295 1415.86 971.66 1419.49 971.66C1423.13 971.66 1426.07 974.295 1426.07 977.473Z" fill="#BF3AC9"/>
<path opacity="0.2" d="M1363.44 883.301C1363.44 888.416 1354.24 892.602 1342.95 892.602C1331.67 892.602 1322.47 888.416 1322.47 883.301C1322.47 878.185 1331.67 874 1342.95 874C1354.24 874 1363.44 878.185 1363.44 883.301Z" fill="#BF3AC9"/>
<path opacity="0.2" d="M1354.94 882.913C1354.94 885.239 1349.37 887.176 1342.57 887.176C1335.76 887.176 1330.2 885.239 1330.2 882.913C1330.2 880.588 1335.76 878.65 1342.57 878.65C1349.37 878.65 1354.94 880.588 1354.94 882.913Z" fill="#F646FF"/>
<path opacity="0.2" d="M1422.43 910.894C1419.96 915.234 1410.06 913.994 1400.32 908.181C1390.58 902.368 1384.7 894.075 1387.25 889.734C1389.73 885.394 1399.62 886.634 1409.37 892.447C1419.03 898.338 1424.91 906.553 1422.43 910.894Z" fill="#BF3AC9"/>
<path opacity="0.2" d="M1414.16 906.088C1412.85 908.336 1406.97 907.483 1401.17 904.073C1395.37 900.74 1391.74 896.09 1393.05 893.842C1394.37 891.594 1400.24 892.447 1406.04 895.857C1411.92 899.19 1415.55 903.763 1414.16 906.088Z" fill="#F646FF"/>
<path opacity="0.2" d="M1459.62 961.041C1455.14 963.444 1446.94 957.398 1441.14 947.632C1435.42 937.866 1434.42 928.023 1438.82 925.62C1443.31 923.218 1451.5 929.186 1457.3 939.029C1463.1 948.873 1464.1 958.638 1459.62 961.041Z" fill="#BF3AC9"/>
<path opacity="0.2" d="M1454.13 955.151C1451.81 956.468 1447.17 952.748 1443.93 946.935C1440.6 941.122 1439.83 935.309 1442.15 933.991C1444.47 932.673 1449.11 936.394 1452.35 942.207C1455.68 948.02 1456.45 953.833 1454.13 955.151Z" fill="#F646FF"/>
<g opacity="0.2">
<mask id="mask0" mask-type="alpha" maskUnits="userSpaceOnUse" x="1215" y="978" width="18" height="42">
<g opacity="0.2">
<g opacity="0.2">
<path opacity="0.2" d="M1215 978.713H1232.78V1019.64H1215V978.713Z" fill="white"/>
</g>
</g>
</mask>
<g mask="url(#mask0)">
<path opacity="0.2" d="M1223.5 1019.64C1218.56 1019.56 1214.77 1010.26 1215 999.02C1215.23 987.704 1219.41 978.558 1224.28 978.713C1229.15 978.868 1232.94 988.091 1232.7 999.33C1232.55 1010.65 1228.37 1019.71 1223.5 1019.64Z" fill="#BF3AC9"/>
</g>
</g>
<path opacity="0.2" d="M1223.66 1011.19C1221.34 1011.11 1219.48 1005.53 1219.64 998.71C1219.79 991.889 1221.73 986.386 1224.12 986.386C1226.44 986.464 1228.3 992.044 1228.14 998.865C1227.99 1005.76 1226.06 1011.27 1223.66 1011.19Z" fill="#F646FF"/>
<path opacity="0.2" d="M1229.3 961.041C1224.9 958.638 1226.06 948.717 1231.78 938.951C1237.58 929.185 1245.77 923.295 1250.18 925.697C1254.58 928.1 1253.42 938.021 1247.7 947.787C1241.9 957.553 1233.71 963.444 1229.3 961.041Z" fill="#BF3AC9"/>
<path opacity="0.2" d="M1234.87 953.6C1232.55 952.283 1233.4 946.47 1236.72 940.657C1240.05 934.843 1244.61 931.123 1246.93 932.441C1249.25 933.758 1248.4 939.571 1245.07 945.385C1241.75 951.198 1237.19 954.918 1234.87 953.6Z" fill="#F646FF"/>
<path opacity="0.2" d="M1266.57 910.971C1264.09 906.63 1269.89 898.415 1279.63 892.524C1289.38 886.711 1299.27 885.471 1301.75 889.811C1304.22 894.152 1298.42 902.368 1288.68 908.258C1279.02 914.071 1269.12 915.234 1266.57 910.971Z" fill="#BF3AC9"/>
<path opacity="0.2" d="M1273.29 906.088C1271.9 903.841 1275.54 899.268 1281.41 895.857C1287.21 892.447 1293.09 891.594 1294.4 893.842C1295.79 896.09 1292.16 900.663 1286.28 904.073C1280.41 907.483 1274.61 908.336 1273.29 906.088Z" fill="#F646FF"/>
</g>
</g>
<g clip-path="url(#clip2)">
<g opacity="0.2">
<path opacity="0.2" d="M1350.07 278.426H1356.21C1355.52 273 1355.52 267.574 1356.21 262.149H1350.07C1350.75 267.574 1350.75 273 1350.07 278.426Z" fill="#BF3AC9"/>
<path opacity="0.2" d="M1330.56 283.851L1335.98 280.813C1332.62 276.509 1329.84 271.843 1327.67 266.851L1322.26 269.889C1325.62 274.23 1328.4 278.86 1330.56 283.851Z" fill="#BF3AC9"/>
<path opacity="0.2" d="M1318.5 300.128L1321.53 294.702C1316.55 292.532 1311.89 289.783 1307.59 286.383L1304.56 291.809C1309.54 293.979 1314.17 296.764 1318.5 300.128Z" fill="#BF3AC9"/>
<path opacity="0.2" d="M1314.67 319.298V313.149C1309 313.836 1303.37 313.836 1297.7 313.149V319.298C1303.37 318.611 1309 318.611 1314.67 319.298Z" fill="#BF3AC9"/>
<path opacity="0.2" d="M1321.53 338.83L1318.5 333.404C1314.2 336.768 1309.54 339.553 1304.56 341.723L1307.59 347.149C1311.93 343.785 1316.55 341 1321.53 338.83Z" fill="#BF3AC9"/>
<path opacity="0.2" d="M1335.98 350.911L1330.56 347.872C1328.4 352.864 1325.65 357.494 1322.26 361.834L1327.67 364.872C1329.84 359.881 1332.62 355.215 1335.98 350.911Z" fill="#BF3AC9"/>
<path opacity="0.2" d="M1356.21 354.745H1350.07C1350.75 360.17 1350.75 365.596 1350.07 371.021H1356.21C1355.52 365.596 1355.52 360.17 1356.21 354.745Z" fill="#BF3AC9"/>
<path opacity="0.2" d="M1376.47 347.872L1371.02 350.911C1374.38 355.215 1377.16 359.881 1379.33 364.872L1384.74 361.834C1381.38 357.494 1378.6 352.864 1376.47 347.872Z" fill="#BF3AC9"/>
<path opacity="0.2" d="M1388.5 333.404L1385.47 338.83C1390.45 341 1395.07 343.749 1399.41 347.149L1402.44 341.723C1397.46 339.553 1392.83 336.768 1388.5 333.404Z" fill="#BF3AC9"/>
<path opacity="0.2" d="M1392.33 313.149V319.298C1398 318.611 1403.63 318.611 1409.3 319.298V313.149C1403.63 313.836 1398 313.836 1392.33 313.149Z" fill="#BF3AC9"/>
<path opacity="0.2" d="M1385.47 294.702L1388.5 300.128C1392.8 296.764 1397.46 293.979 1402.44 291.809L1399.41 286.383C1395.07 289.747 1390.45 292.532 1385.47 294.702Z" fill="#BF3AC9"/>
<path opacity="0.2" d="M1371.02 280.813L1376.44 283.851C1378.6 278.86 1381.38 274.194 1384.74 269.889L1379.33 266.851C1377.16 271.843 1374.38 276.472 1371.02 280.813Z" fill="#BF3AC9"/>
<path opacity="0.2" d="M1397.02 316.585C1397.02 340.638 1377.37 360.17 1353.14 360.17C1328.9 360.17 1309.25 340.674 1309.25 316.585C1309.25 292.496 1328.9 273 1353.14 273C1377.37 273 1397.02 292.532 1397.02 316.585Z" fill="#BF3AC9"/>
<path opacity="0.2" d="M1397.02 316.585C1397.02 321.83 1396.08 326.821 1394.39 331.487C1393.3 334.417 1391.93 337.238 1390.23 339.843C1384.85 348.343 1376.58 354.817 1366.79 358C1362.49 359.411 1357.91 360.17 1353.1 360.17C1328.9 360.17 1309.25 340.638 1309.25 316.585C1309.25 311.847 1310.01 307.289 1311.42 302.985C1314.64 293.291 1321.17 285.081 1329.7 279.728C1332.33 278.064 1335.15 276.689 1338.11 275.604C1342.81 273.904 1347.83 273 1353.14 273C1377.37 273 1397.02 292.496 1397.02 316.585Z" fill="#BF3AC9"/>
<path opacity="0.2" d="M1369.21 344.509C1369.21 349.319 1368.45 353.985 1367.04 358.362C1362.75 359.772 1358.12 360.568 1353.32 360.568C1328.97 360.568 1309.25 340.711 1309.25 316.187C1309.25 311.377 1310.01 306.711 1311.46 302.334C1315.79 300.923 1320.38 300.128 1325.18 300.128C1349.49 300.128 1369.21 319.985 1369.21 344.509Z" fill="#BF3AC9"/>
<path opacity="0.2" d="M1397.75 316.187C1397.75 321.468 1396.81 326.532 1395.11 331.198C1394.03 334.164 1392.65 336.985 1390.99 339.626C1384.2 343.93 1376.18 346.389 1367.59 346.389C1343.35 346.426 1323.7 326.749 1323.7 302.515C1323.7 293.906 1326.19 285.84 1330.46 279.077C1333.09 277.413 1335.91 276.002 1338.87 274.917C1343.57 273.217 1348.62 272.277 1353.9 272.277C1378.1 272.277 1397.75 291.953 1397.75 316.187Z" fill="#F646FF"/>
<path opacity="0.2" d="M1363.79 291.266C1363.79 293.183 1362.24 294.702 1360.36 294.702C1358.48 294.702 1356.93 293.183 1356.93 291.266C1356.93 289.385 1358.48 287.83 1360.36 287.83C1362.24 287.83 1363.79 289.385 1363.79 291.266Z" fill="#BF3AC9"/>
<path opacity="0.2" d="M1388.36 323.457C1388.36 325.338 1386.8 326.894 1384.92 326.894C1383.05 326.894 1381.49 325.338 1381.49 323.457C1381.49 321.577 1383.01 320.021 1384.92 320.021C1386.8 320.021 1388.36 321.577 1388.36 323.457Z" fill="#BF3AC9"/>
<path opacity="0.2" d="M1330.56 313.511C1330.56 317.091 1327.64 320.021 1324.06 320.021C1320.49 320.021 1317.56 317.091 1317.56 313.511C1317.56 309.93 1320.49 307 1324.06 307C1327.64 307 1330.56 309.93 1330.56 313.511Z" fill="#BF3AC9"/>
<path opacity="0.2" d="M1367.77 305.192C1367.77 307.977 1365.49 310.255 1362.71 310.255C1359.93 310.255 1357.65 307.977 1357.65 305.192C1357.65 302.406 1359.93 300.128 1362.71 300.128C1365.49 300.128 1367.77 302.406 1367.77 305.192Z" fill="#BF3AC9"/>
<path opacity="0.2" d="M1374.63 342.989C1374.63 344.472 1373.4 345.702 1371.92 345.702C1370.44 345.702 1369.21 344.472 1369.21 342.989C1369.21 341.506 1370.44 340.277 1371.92 340.277C1373.4 340.277 1374.63 341.506 1374.63 342.989Z" fill="#BF3AC9"/>
<path opacity="0.2" d="M1342.12 293.255C1342.12 296.655 1339.38 299.404 1335.98 299.404C1332.59 299.404 1329.84 296.655 1329.84 293.255C1329.84 289.855 1332.59 287.106 1335.98 287.106C1339.38 287.106 1342.12 289.855 1342.12 293.255Z" fill="#BF3AC9"/>
<path opacity="0.2" d="M1354.04 283.308C1354.04 284.791 1352.81 286.021 1351.33 286.021C1349.85 286.021 1348.62 284.791 1348.62 283.308C1348.62 281.825 1349.85 280.596 1351.33 280.596C1352.81 280.596 1354.04 281.825 1354.04 283.308Z" fill="#BF3AC9"/>
<path opacity="0.2" d="M1384.74 295.968C1384.74 297.451 1383.52 298.681 1382.03 298.681C1380.55 298.681 1379.33 297.451 1379.33 295.968C1379.33 294.485 1380.55 293.255 1382.03 293.255C1383.52 293.255 1384.74 294.485 1384.74 295.968Z" fill="#BF3AC9"/>
<path opacity="0.2" d="M1348.62 340.277C1348.62 343.677 1345.88 346.426 1342.48 346.426C1339.09 346.426 1336.34 343.677 1336.34 340.277C1336.34 336.877 1339.09 334.128 1342.48 334.128C1345.88 334.128 1348.62 336.877 1348.62 340.277Z" fill="#BF3AC9"/>
<path opacity="0.2" d="M1391.61 304.287C1391.61 305.77 1390.23 307 1388.54 307C1386.84 307 1385.47 305.77 1385.47 304.287C1385.47 302.804 1386.84 301.574 1388.54 301.574C1390.23 301.574 1391.61 302.804 1391.61 304.287Z" fill="#BF3AC9"/>
<path opacity="0.2" d="M1362.35 260.34C1362.35 262.728 1358.05 264.681 1352.78 264.681C1347.5 264.681 1343.21 262.728 1343.21 260.34C1343.21 257.953 1347.5 256 1352.78 256C1358.05 256 1362.35 257.953 1362.35 260.34Z" fill="#BF3AC9"/>
<path opacity="0.2" d="M1358.38 260.16C1358.38 261.245 1355.78 262.149 1352.6 262.149C1349.42 262.149 1346.82 261.245 1346.82 260.16C1346.82 259.074 1349.42 258.17 1352.6 258.17C1355.78 258.17 1358.38 259.074 1358.38 260.16Z" fill="#F646FF"/>
<g opacity="0.2">
<mask id="mask1" mask-type="alpha" maskUnits="userSpaceOnUse" x="1343" y="366" width="20" height="9">
<g opacity="0.2">
<g opacity="0.2">
<path opacity="0.2" d="M1343.21 366.319H1362.35V375H1343.21V366.319Z" fill="white"/>
</g>
</g>
</mask>
<g mask="url(#mask1)">
<path opacity="0.2" d="M1362.35 370.66C1362.35 373.047 1358.05 375 1352.78 375C1347.5 375 1343.21 373.047 1343.21 370.66C1343.21 368.272 1347.5 366.319 1352.78 366.319C1358.05 366.319 1362.35 368.272 1362.35 370.66Z" fill="#BF3AC9"/>
</g>
</g>
<path opacity="0.2" d="M1358.38 370.84C1358.38 371.926 1355.78 372.83 1352.6 372.83C1349.42 372.83 1346.82 371.926 1346.82 370.84C1346.82 369.755 1349.42 368.851 1352.6 368.851C1355.78 368.851 1358.38 369.755 1358.38 370.84Z" fill="#F646FF"/>
<path opacity="0.2" d="M1389.91 273.217C1388.75 275.243 1384.13 274.664 1379.58 271.951C1375.03 269.238 1372.28 265.368 1373.47 263.343C1374.63 261.317 1379.25 261.896 1383.8 264.609C1388.32 267.358 1391.06 271.192 1389.91 273.217Z" fill="#BF3AC9"/>
<path opacity="0.2" d="M1386.04 270.974C1385.43 272.023 1382.68 271.626 1379.98 270.034C1377.27 268.479 1375.57 266.308 1376.18 265.26C1376.8 264.211 1379.54 264.608 1382.25 266.2C1385 267.755 1386.69 269.889 1386.04 270.974Z" fill="#F646FF"/>
<path opacity="0.2" d="M1333.56 368.345C1332.41 370.37 1327.78 369.792 1323.23 367.079C1318.68 364.366 1315.94 360.496 1317.13 358.47C1318.28 356.445 1322.91 357.023 1327.46 359.736C1331.97 362.485 1334.72 366.319 1333.56 368.345Z" fill="#BF3AC9"/>
<path opacity="0.2" d="M1330.06 365.741C1329.44 366.789 1326.7 366.392 1323.99 364.8C1321.28 363.245 1319.58 361.111 1320.2 360.026C1320.81 358.977 1323.56 359.375 1326.27 360.966C1329.01 362.521 1330.71 364.655 1330.06 365.741Z" fill="#F646FF"/>
<path opacity="0.2" d="M1407.28 296.619C1405.19 297.74 1401.36 294.919 1398.65 290.362C1395.98 285.804 1395.51 281.211 1397.57 280.089C1399.66 278.968 1403.49 281.753 1406.2 286.347C1408.91 290.94 1409.38 295.498 1407.28 296.619Z" fill="#BF3AC9"/>
<path opacity="0.2" d="M1404.72 293.87C1403.63 294.485 1401.47 292.749 1399.95 290.036C1398.4 287.323 1398.04 284.611 1399.12 283.996C1400.2 283.381 1402.37 285.117 1403.89 287.83C1405.44 290.543 1405.8 293.255 1404.72 293.87Z" fill="#F646FF"/>
<path opacity="0.2" d="M1309.4 350.874C1307.3 351.996 1303.44 349.174 1300.77 344.617C1298.09 340.06 1297.62 335.466 1299.68 334.345C1301.78 333.223 1305.64 336.008 1308.31 340.602C1311.02 345.16 1311.49 349.753 1309.4 350.874Z" fill="#BF3AC9"/>
<path opacity="0.2" d="M1306.83 347.764C1305.75 348.379 1303.58 346.642 1302.07 343.93C1300.51 341.217 1300.15 338.504 1301.24 337.889C1302.32 337.274 1304.49 339.011 1306 341.723C1307.56 344.436 1307.92 347.149 1306.83 347.764Z" fill="#F646FF"/>
<path opacity="0.2" d="M1409.67 326.17C1407.39 326.134 1405.62 321.794 1405.69 316.513C1405.8 311.232 1407.75 306.964 1410.03 307C1412.3 307.036 1414.11 311.377 1414 316.657C1413.89 321.974 1411.94 326.206 1409.67 326.17Z" fill="#BF3AC9"/>
<path opacity="0.2" d="M1409.74 322.553C1408.65 322.517 1407.79 319.913 1407.86 316.73C1407.93 313.547 1408.83 310.979 1409.95 310.979C1411.04 311.015 1411.91 313.619 1411.83 316.802C1411.76 320.021 1410.86 322.589 1409.74 322.553Z" fill="#F646FF"/>
<g opacity="0.2">
<mask id="mask2" mask-type="alpha" maskUnits="userSpaceOnUse" x="1293" y="304" width="9" height="20">
<g opacity="0.2">
<g opacity="0.2">
<path opacity="0.2" d="M1293 304.866H1301.31V323.964H1293V304.866Z" fill="white"/>
</g>
</g>
</mask>
<g mask="url(#mask2)">
<path opacity="0.2" d="M1296.97 323.964C1294.66 323.927 1292.89 319.587 1293 314.342C1293.11 309.061 1295.06 304.793 1297.33 304.866C1299.61 304.938 1301.38 309.242 1301.27 314.487C1301.2 319.768 1299.25 324 1296.97 323.964Z" fill="#BF3AC9"/>
</g>
</g>
<path opacity="0.2" d="M1297.05 320.021C1295.96 319.985 1295.09 317.381 1295.17 314.198C1295.24 311.015 1296.14 308.447 1297.26 308.447C1298.35 308.483 1299.21 311.087 1299.14 314.27C1299.07 317.489 1298.16 320.057 1297.05 320.021Z" fill="#F646FF"/>
<path opacity="0.2" d="M1396.84 351.598C1394.78 350.477 1395.33 345.847 1398 341.289C1400.71 336.732 1404.54 333.983 1406.6 335.104C1408.65 336.226 1408.11 340.855 1405.44 345.413C1402.73 349.97 1398.9 352.719 1396.84 351.598Z" fill="#BF3AC9"/>
<path opacity="0.2" d="M1399.08 347.764C1398 347.149 1398.4 344.436 1399.95 341.723C1401.5 339.011 1403.63 337.274 1404.72 337.889C1405.8 338.504 1405.4 341.217 1403.85 343.93C1402.3 346.642 1400.17 348.379 1399.08 347.764Z" fill="#F646FF"/>
<path opacity="0.2" d="M1299.68 296.619C1297.62 295.498 1298.17 290.868 1300.84 286.311C1303.55 281.753 1307.38 279.004 1309.43 280.126C1311.49 281.247 1310.95 285.877 1308.28 290.434C1305.57 294.992 1301.74 297.74 1299.68 296.619Z" fill="#BF3AC9"/>
<path opacity="0.2" d="M1302.28 293.147C1301.2 292.532 1301.6 289.819 1303.15 287.106C1304.7 284.394 1306.83 282.657 1307.92 283.272C1309 283.887 1308.6 286.6 1307.05 289.313C1305.5 292.026 1303.37 293.762 1302.28 293.147Z" fill="#F646FF"/>
<path opacity="0.2" d="M1373.44 368.381C1372.28 366.355 1374.99 362.521 1379.54 359.772C1384.09 357.06 1388.72 356.481 1389.87 358.506C1391.03 360.532 1388.32 364.366 1383.77 367.115C1379.25 369.828 1374.63 370.37 1373.44 368.381Z" fill="#BF3AC9"/>
<path opacity="0.2" d="M1376.22 365.741C1375.57 364.692 1377.27 362.558 1380.01 360.966C1382.72 359.375 1385.47 358.977 1386.08 360.026C1386.73 361.075 1385.03 363.209 1382.29 364.8C1379.54 366.392 1376.83 366.789 1376.22 365.741Z" fill="#F646FF"/>
<path opacity="0.2" d="M1317.09 273.253C1315.94 271.228 1318.64 267.394 1323.2 264.645C1327.75 261.932 1332.37 261.353 1333.53 263.379C1334.68 265.404 1331.97 269.238 1327.42 271.987C1322.91 274.7 1318.28 275.243 1317.09 273.253Z" fill="#BF3AC9"/>
<path opacity="0.2" d="M1320.23 270.974C1319.58 269.926 1321.28 267.791 1324.03 266.2C1326.74 264.608 1329.48 264.211 1330.09 265.26C1330.74 266.308 1329.05 268.443 1326.3 270.034C1323.56 271.626 1320.85 272.023 1320.23 270.974Z" fill="#F646FF"/>
</g>
</g>
<g clip-path="url(#clip3)">
<g opacity="0.2">
<path opacity="0.2" d="M82.5552 179.617H92.2985C91.2095 171 91.2095 162.383 92.2985 153.766H82.5552C83.6441 162.383 83.6441 171 82.5552 179.617Z" fill="#BF3AC9"/>
<path opacity="0.2" d="M51.6059 188.234L60.2029 183.409C54.8728 176.572 50.4596 169.162 47.0208 161.234L38.4238 166.06C43.754 172.953 48.1671 180.306 51.6059 188.234Z" fill="#BF3AC9"/>
<path opacity="0.2" d="M32.4633 214.085L37.2776 205.468C29.3684 202.021 21.975 197.655 15.1547 192.255L10.3403 200.872C18.2496 204.319 25.5857 208.743 32.4633 214.085Z" fill="#BF3AC9"/>
<path opacity="0.2" d="M26.388 244.532V234.766C17.3898 235.857 8.44889 235.857 -0.549316 234.766V244.532C8.44889 243.44 17.3898 243.44 26.388 244.532Z" fill="#BF3AC9"/>
<path opacity="0.2" d="M37.2776 275.553L32.4633 266.936C25.643 272.279 18.2496 276.702 10.3403 280.149L15.1547 288.766C22.0323 283.423 29.3684 279 37.2776 275.553Z" fill="#BF3AC9"/>
<path opacity="0.2" d="M60.2029 294.74L51.6059 289.915C48.1671 297.842 43.8113 305.196 38.4238 312.089L47.0208 316.915C50.4596 308.987 54.8728 301.576 60.2029 294.74Z" fill="#BF3AC9"/>
<path opacity="0.2" d="M92.2985 300.83H82.5552C83.6441 309.447 83.6441 318.064 82.5552 326.681H92.2985C91.2095 318.064 91.2095 309.447 92.2985 300.83Z" fill="#BF3AC9"/>
<path opacity="0.2" d="M124.451 289.915L115.797 294.74C121.127 301.576 125.54 308.987 128.979 316.915L137.576 312.089C132.246 305.196 127.833 297.842 124.451 289.915Z" fill="#BF3AC9"/>
<path opacity="0.2" d="M143.537 266.936L138.722 275.553C146.632 279 153.968 283.366 160.845 288.766L165.66 280.149C157.75 276.702 150.414 272.279 143.537 266.936Z" fill="#BF3AC9"/>
<path opacity="0.2" d="M149.612 234.766V244.532C158.61 243.44 167.551 243.44 176.549 244.532V234.766C167.551 235.857 158.61 235.857 149.612 234.766Z" fill="#BF3AC9"/>
<path opacity="0.2" d="M138.722 205.468L143.537 214.085C150.357 208.743 157.75 204.319 165.66 200.872L160.845 192.255C153.968 197.598 146.632 202.021 138.722 205.468Z" fill="#BF3AC9"/>
<path opacity="0.2" d="M115.797 183.409L124.394 188.234C127.833 180.306 132.246 172.896 137.576 166.06L128.979 161.234C125.54 169.162 121.127 176.515 115.797 183.409Z" fill="#BF3AC9"/>
<path opacity="0.2" d="M157.063 240.223C157.063 278.426 125.884 309.447 87.4268 309.447C48.9695 309.447 17.791 278.483 17.791 240.223C17.791 201.964 48.9695 171 87.4268 171C125.884 171 157.063 202.021 157.063 240.223Z" fill="#BF3AC9"/>
<path opacity="0.2" d="M157.063 240.223C157.063 248.553 155.573 256.481 152.879 263.891C151.159 268.545 148.981 273.026 146.288 277.162C137.748 290.662 124.623 300.945 109.091 306C102.271 308.24 94.9922 309.447 87.3695 309.447C48.9695 309.447 17.791 278.426 17.791 240.223C17.791 232.698 18.9946 225.46 21.2298 218.623C26.3307 203.228 36.7044 190.187 50.2304 181.685C54.4143 179.043 58.8847 176.86 63.5844 175.136C71.0352 172.436 79.0018 171 87.4268 171C125.884 171 157.063 201.964 157.063 240.223Z" fill="#BF3AC9"/>
<path opacity="0.2" d="M112.931 284.572C112.931 292.213 111.728 299.624 109.493 306.575C102.672 308.815 95.3361 310.079 87.7134 310.079C49.0842 310.079 17.791 278.541 17.791 239.592C17.791 231.951 18.9946 224.541 21.2871 217.589C28.1647 215.349 35.4436 214.085 43.0662 214.085C81.6382 214.085 112.931 245.624 112.931 284.572Z" fill="#BF3AC9"/>
<path opacity="0.2" d="M158.209 239.591C158.209 247.979 156.719 256.021 154.025 263.432C152.306 268.143 150.128 272.623 147.491 276.817C136.716 283.653 123.993 287.56 110.352 287.56C71.8948 287.617 40.7163 256.366 40.7163 217.877C40.7163 204.204 44.6709 191.394 51.4339 180.651C55.6178 178.009 60.0883 175.768 64.788 174.045C72.2387 171.345 80.2626 169.851 88.6303 169.851C127.03 169.851 158.209 201.102 158.209 239.591Z" fill="#F646FF"/>
<path opacity="0.2" d="M104.334 200.011C104.334 203.055 101.87 205.468 98.8896 205.468C95.9093 205.468 93.4448 203.055 93.4448 200.011C93.4448 197.023 95.9093 194.553 98.8896 194.553C101.87 194.553 104.334 197.023 104.334 200.011Z" fill="#BF3AC9"/>
<path opacity="0.2" d="M143.308 251.138C143.308 254.126 140.843 256.596 137.863 256.596C134.882 256.596 132.418 254.126 132.418 251.138C132.418 248.151 134.825 245.681 137.863 245.681C140.843 245.681 143.308 248.151 143.308 251.138Z" fill="#BF3AC9"/>
<path opacity="0.2" d="M51.606 235.34C51.606 241.028 46.9636 245.681 41.2896 245.681C35.6155 245.681 30.9731 241.028 30.9731 235.34C30.9731 229.653 35.6155 225 41.2896 225C46.9636 225 51.606 229.653 51.606 235.34Z" fill="#BF3AC9"/>
<path opacity="0.2" d="M110.639 222.128C110.639 226.551 107.028 230.17 102.615 230.17C98.2018 230.17 94.5911 226.551 94.5911 222.128C94.5911 217.704 98.2018 214.085 102.615 214.085C107.028 214.085 110.639 217.704 110.639 222.128Z" fill="#BF3AC9"/>
<path opacity="0.2" d="M121.528 282.16C121.528 284.515 119.58 286.468 117.23 286.468C114.88 286.468 112.931 284.515 112.931 282.16C112.931 279.804 114.88 277.851 117.23 277.851C119.58 277.851 121.528 279.804 121.528 282.16Z" fill="#BF3AC9"/>
<path opacity="0.2" d="M69.9463 203.17C69.9463 208.57 65.5905 212.936 60.203 212.936C54.8155 212.936 50.4597 208.57 50.4597 203.17C50.4597 197.77 54.8155 193.404 60.203 193.404C65.5905 193.404 69.9463 197.77 69.9463 203.17Z" fill="#BF3AC9"/>
<path opacity="0.2" d="M88.8597 187.372C88.8597 189.728 86.9111 191.681 84.5612 191.681C82.2114 191.681 80.2627 189.728 80.2627 187.372C80.2627 185.017 82.2114 183.064 84.5612 183.064C86.9111 183.064 88.8597 185.017 88.8597 187.372Z" fill="#BF3AC9"/>
<path opacity="0.2" d="M137.576 207.479C137.576 209.834 135.627 211.787 133.278 211.787C130.928 211.787 128.979 209.834 128.979 207.479C128.979 205.123 130.928 203.17 133.278 203.17C135.627 203.17 137.576 205.123 137.576 207.479Z" fill="#BF3AC9"/>
<path opacity="0.2" d="M80.2627 277.851C80.2627 283.251 75.9069 287.617 70.5194 287.617C65.1319 287.617 60.7761 283.251 60.7761 277.851C60.7761 272.451 65.1319 268.085 70.5194 268.085C75.9069 268.085 80.2627 272.451 80.2627 277.851Z" fill="#BF3AC9"/>
<path opacity="0.2" d="M148.466 220.692C148.466 223.047 146.288 225 143.594 225C140.9 225 138.722 223.047 138.722 220.692C138.722 218.336 140.9 216.383 143.594 216.383C146.288 216.383 148.466 218.336 148.466 220.692Z" fill="#BF3AC9"/>
<path opacity="0.2" d="M102.042 150.894C102.042 154.685 95.2216 157.787 86.8538 157.787C78.4861 157.787 71.6658 154.685 71.6658 150.894C71.6658 147.102 78.4861 144 86.8538 144C95.2216 144 102.042 147.102 102.042 150.894Z" fill="#BF3AC9"/>
<path opacity="0.2" d="M95.7373 150.606C95.7373 152.33 91.6107 153.766 86.5671 153.766C81.5235 153.766 77.397 152.33 77.397 150.606C77.397 148.883 81.5235 147.447 86.5671 147.447C91.6107 147.447 95.7373 148.883 95.7373 150.606Z" fill="#F646FF"/>
<g opacity="0.2">
<mask id="mask3" mask-type="alpha" maskUnits="userSpaceOnUse" x="71" y="319" width="32" height="15">
<g opacity="0.2">
<g opacity="0.2">
<path opacity="0.2" d="M71.6658 319.213H102.042V333H71.6658V319.213Z" fill="white"/>
</g>
</g>
</mask>
<g mask="url(#mask3)">
<path opacity="0.2" d="M102.042 326.107C102.042 329.898 95.2216 333 86.8538 333C78.4861 333 71.6658 329.898 71.6658 326.107C71.6658 322.315 78.4861 319.213 86.8538 319.213C95.2216 319.213 102.042 322.315 102.042 326.107Z" fill="#BF3AC9"/>
</g>
</g>
<path opacity="0.2" d="M95.7373 326.394C95.7373 328.117 91.6107 329.553 86.5671 329.553C81.5235 329.553 77.397 328.117 77.397 326.394C77.397 324.67 81.5235 323.234 86.5671 323.234C91.6107 323.234 95.7373 324.67 95.7373 326.394Z" fill="#F646FF"/>
<path opacity="0.2" d="M145.772 171.345C143.938 174.562 136.602 173.643 129.38 169.334C122.159 165.026 117.803 158.879 119.694 155.662C121.528 152.445 128.865 153.364 136.086 157.672C143.25 162.038 147.606 168.128 145.772 171.345Z" fill="#BF3AC9"/>
<path opacity="0.2" d="M139.64 167.783C138.665 169.449 134.309 168.817 130.011 166.289C125.712 163.819 123.019 160.372 123.993 158.706C124.967 157.04 129.323 157.672 133.622 160.2C137.977 162.67 140.671 166.059 139.64 167.783Z" fill="#F646FF"/>
<path opacity="0.2" d="M56.3631 322.43C54.5291 325.647 47.1929 324.728 39.9714 320.419C32.75 316.111 28.3941 309.964 30.2855 306.747C32.1195 303.53 39.4556 304.449 46.6771 308.757C53.8413 313.123 58.1971 319.213 56.3631 322.43Z" fill="#BF3AC9"/>
<path opacity="0.2" d="M50.8036 318.294C49.8292 319.96 45.4734 319.328 41.1749 316.8C36.8764 314.33 34.1827 310.94 35.157 309.217C36.1313 307.551 40.4871 308.183 44.7856 310.711C49.1415 313.181 51.8352 316.57 50.8036 318.294Z" fill="#F646FF"/>
<path opacity="0.2" d="M173.34 208.513C170.016 210.294 163.94 205.813 159.642 198.574C155.401 191.336 154.656 184.04 157.922 182.26C161.247 180.479 167.322 184.902 171.62 192.198C175.919 199.494 176.664 206.732 173.34 208.513Z" fill="#BF3AC9"/>
<path opacity="0.2" d="M169.27 204.147C167.551 205.123 164.112 202.366 161.705 198.057C159.241 193.749 158.667 189.44 160.387 188.464C162.106 187.487 165.545 190.245 167.952 194.553C170.417 198.862 170.99 203.17 169.27 204.147Z" fill="#F646FF"/>
<path opacity="0.2" d="M18.0202 294.683C14.696 296.464 8.56351 291.983 4.32231 284.745C0.0811194 277.506 -0.663955 270.211 2.60291 268.43C5.92709 266.649 12.0596 271.072 16.3008 278.368C20.5993 285.606 21.3444 292.902 18.0202 294.683Z" fill="#BF3AC9"/>
<path opacity="0.2" d="M13.9511 289.743C12.2317 290.719 8.79294 287.962 6.38577 283.653C3.92129 279.345 3.34816 275.036 5.06756 274.06C6.78696 273.083 10.2258 275.84 12.6329 280.149C15.0974 284.457 15.6705 288.766 13.9511 289.743Z" fill="#F646FF"/>
<path opacity="0.2" d="M177.122 255.447C173.512 255.389 170.703 248.496 170.818 240.109C170.99 231.721 174.085 224.943 177.695 225C181.306 225.058 184.172 231.951 184 240.338C183.828 248.783 180.733 255.504 177.122 255.447Z" fill="#BF3AC9"/>
<path opacity="0.2" d="M177.237 249.702C175.518 249.645 174.142 245.508 174.257 240.453C174.371 235.398 175.804 231.319 177.581 231.319C179.3 231.377 180.676 235.513 180.561 240.568C180.447 245.681 179.014 249.76 177.237 249.702Z" fill="#F646FF"/>
<g opacity="0.2">
<mask id="mask4" mask-type="alpha" maskUnits="userSpaceOnUse" x="-8" y="221" width="14" height="31">
<g opacity="0.2">
<g opacity="0.2">
<path opacity="0.2" d="M-8 221.611H5.18209V251.943H-8V221.611Z" fill="white"/>
</g>
</g>
</mask>
<g mask="url(#mask4)">
<path opacity="0.2" d="M-1.69658 251.942C-5.36464 251.885 -8.17299 244.991 -8.00105 236.661C-7.82911 228.274 -4.73419 221.495 -1.12344 221.61C2.48731 221.725 5.29566 228.561 5.12372 236.891C5.0091 245.278 1.91417 252 -1.69658 251.942Z" fill="#BF3AC9"/>
</g>
</g>
<path opacity="0.2" d="M-1.58089 245.681C-3.3003 245.623 -4.67582 241.487 -4.56119 236.432C-4.44656 231.377 -3.01373 227.298 -1.23701 227.298C0.482391 227.355 1.85791 231.491 1.74329 236.547C1.62866 241.66 0.195823 245.738 -1.58089 245.681Z" fill="#F646FF"/>
<path opacity="0.2" d="M156.776 295.832C153.509 294.051 154.369 286.698 158.61 279.459C162.909 272.221 168.984 267.855 172.251 269.636C175.518 271.417 174.658 278.77 170.417 286.008C166.118 293.247 160.043 297.613 156.776 295.832Z" fill="#BF3AC9"/>
<path opacity="0.2" d="M160.33 289.743C158.61 288.766 159.241 284.457 161.705 280.149C164.17 275.84 167.551 273.083 169.27 274.06C170.99 275.036 170.359 279.345 167.895 283.653C165.43 287.962 162.049 290.719 160.33 289.743Z" fill="#F646FF"/>
<path opacity="0.2" d="M2.60308 208.513C-0.663782 206.732 0.19592 199.379 4.43711 192.14C8.73562 184.902 14.8108 180.536 18.0777 182.317C21.3446 184.098 20.4849 191.451 16.2437 198.689C11.9452 205.928 5.86995 210.294 2.60308 208.513Z" fill="#BF3AC9"/>
<path opacity="0.2" d="M6.72952 202.998C5.01012 202.021 5.64057 197.713 8.10505 193.404C10.5695 189.096 13.951 186.338 15.6704 187.315C17.3898 188.292 16.7594 192.6 14.2949 196.909C11.8304 201.217 8.44893 203.974 6.72952 202.998Z" fill="#F646FF"/>
<path opacity="0.2" d="M119.637 322.487C117.803 319.27 122.101 313.181 129.323 308.815C136.544 304.506 143.88 303.587 145.714 306.804C147.549 310.021 143.25 316.111 136.029 320.477C128.864 324.785 121.528 325.647 119.637 322.487Z" fill="#BF3AC9"/>
<path opacity="0.2" d="M124.05 318.294C123.019 316.628 125.712 313.238 130.068 310.711C134.367 308.183 138.722 307.551 139.697 309.217C140.728 310.883 138.035 314.272 133.679 316.8C129.323 319.328 125.024 319.96 124.05 318.294Z" fill="#F646FF"/>
<path opacity="0.2" d="M30.228 171.402C28.3939 168.185 32.6924 162.096 39.9139 157.73C47.1354 153.421 54.4715 152.502 56.3056 155.719C58.1396 158.936 53.8411 165.026 46.6196 169.391C39.4554 173.7 32.1193 174.562 30.228 171.402Z" fill="#BF3AC9"/>
<path opacity="0.2" d="M35.2142 167.783C34.1826 166.117 36.8763 162.728 41.2321 160.2C45.5306 157.672 49.8865 157.04 50.8608 158.706C51.8924 160.372 49.1987 163.762 44.8429 166.289C40.4871 168.817 36.1886 169.449 35.2142 167.783Z" fill="#F646FF"/>
</g>
</g>
</g>
<defs>
<linearGradient id="paint0_linear" x1="290.585" y1="175.554" x2="276.177" y2="1487.61" gradientUnits="userSpaceOnUse">
<stop stop-color="#EBF6FF"/>
<stop offset="1" stop-color="#1D9CF7"/>
</linearGradient>
<clipPath id="clip0">
<rect width="1440" height="1030" fill="white"/>
</clipPath>
<clipPath id="clip1">
<rect width="259" height="255" fill="white" transform="translate(1215 874)"/>
</clipPath>
<clipPath id="clip2">
<rect width="121" height="119" fill="white" transform="translate(1293 256)"/>
</clipPath>
<clipPath id="clip3">
<rect width="192" height="189" fill="white" transform="translate(-8 144)"/>
</clipPath>
</defs>
</svg>
