<svg width="544" height="474" viewBox="0 0 544 474" fill="none" xmlns="http://www.w3.org/2000/svg">
<path opacity="0.2" d="M501.648 108.266C500.943 92.8956 498.944 77.1414 491.185 64.2051C479.782 45.2489 457.916 36.5392 437.108 35.6427C404.192 34.2338 372.452 49.0913 343.885 67.151C315.436 85.2107 288.633 106.729 258.303 120.946C202.698 146.947 140.274 146.178 79.9672 151.301C60.0999 152.966 38.9394 155.912 23.5393 169.745C10.7255 181.273 3.672 199.076 1.20328 216.88C-5.49753 264.014 16.4858 312.173 49.7547 343.169C83.0237 374.165 125.932 390.176 168.959 399.526C216.805 409.772 266.649 412.462 314.025 399.782C402.782 375.958 466.38 299.877 491.185 206.121C499.532 174.356 503.176 141.183 501.648 108.266Z" fill="#F646FF"/>
<path opacity="0.1" d="M292.625 474C431.456 474 544 469.909 544 464.863C544 459.817 431.456 455.726 292.625 455.726C153.794 455.726 41.2495 459.817 41.2495 464.863C41.2495 469.909 153.794 474 292.625 474Z" fill="#187DD7"/>
<path d="M527.93 92.5166H156.032C147.157 92.5166 139.962 99.6757 139.962 108.507V201.023C139.962 209.855 147.157 217.014 156.032 217.014H527.93C536.805 217.014 544 209.855 544 201.023V108.507C544 99.6757 536.805 92.5166 527.93 92.5166Z" fill="#DA42E6"/>
<path d="M519.894 92.5166H156.032C147.157 92.5166 139.962 99.6757 139.962 108.507V201.023C139.962 209.855 147.157 217.014 156.032 217.014H519.894C528.769 217.014 535.964 209.855 535.964 201.023V108.507C535.964 99.6757 528.769 92.5166 519.894 92.5166Z" fill="#F646FF"/>
<path d="M235.855 157.631C237.272 156.035 238.038 153.97 238.002 151.841C237.976 149.872 237.179 147.991 235.779 146.598C234.38 145.205 232.49 144.41 230.511 144.383H219.699C219.786 144.068 219.89 143.757 220.009 143.452C220.132 143.157 220.276 142.872 220.439 142.598C220.621 142.287 220.75 142.054 220.829 141.899C221.297 141.017 221.655 140.293 221.904 139.729C222.211 138.972 222.457 138.193 222.643 137.399C222.888 136.434 223.013 135.443 223.014 134.447C223.014 133.827 223.014 133.323 222.994 132.933C222.958 132.347 222.891 131.763 222.792 131.184C222.703 130.523 222.546 129.872 222.324 129.242C222.076 128.628 221.761 128.042 221.386 127.495C220.979 126.87 220.447 126.334 219.824 125.921C219.098 125.471 218.309 125.133 217.483 124.917C216.431 124.634 215.344 124.498 214.254 124.515C213.926 124.514 213.602 124.579 213.3 124.706C212.998 124.833 212.725 125.019 212.498 125.254C211.946 125.819 211.497 126.477 211.172 127.196C210.855 127.844 210.6 128.521 210.41 129.216C210.266 129.787 210.103 130.576 209.921 131.586C209.687 132.674 209.511 133.457 209.394 133.935C209.215 134.58 208.984 135.21 208.704 135.819C208.421 136.51 208.011 137.142 207.493 137.682C206.097 139.166 204.781 140.723 203.55 142.345C202.275 144.002 200.96 145.569 199.607 147.044C198.254 148.519 197.265 149.284 196.64 149.337C196 149.385 195.401 149.672 194.963 150.14C194.739 150.361 194.561 150.624 194.44 150.914C194.319 151.204 194.258 151.515 194.261 151.829V176.73C194.257 177.053 194.321 177.373 194.448 177.671C194.576 177.968 194.764 178.236 195.002 178.456C195.468 178.924 196.098 179.196 196.76 179.216C198.873 179.555 200.942 180.13 202.927 180.928C204.929 181.598 206.497 182.109 207.633 182.463C208.768 182.816 210.348 183.192 212.373 183.589C214.224 183.971 216.107 184.173 217.997 184.192H223.046C226.509 184.139 229.073 183.129 230.737 181.161C231.513 180.177 232.082 179.048 232.411 177.84C232.739 176.633 232.821 175.372 232.65 174.133C233.686 173.138 234.417 171.87 234.757 170.478C235.199 168.995 235.199 167.417 234.757 165.934C235.936 164.416 236.531 162.529 236.436 160.613C236.409 159.594 236.212 158.586 235.855 157.631Z" fill="white"/>
<path d="M189.287 149.355H178.044C177.384 149.364 176.754 149.629 176.287 150.093C175.821 150.557 175.555 151.185 175.546 151.841V176.703C175.554 177.36 175.82 177.987 176.287 178.451C176.754 178.915 177.384 179.18 178.044 179.187H189.287C189.946 179.178 190.576 178.914 191.042 178.45C191.508 177.986 191.774 177.359 191.783 176.703V151.841C191.774 151.185 191.508 150.559 191.042 150.094C190.576 149.63 189.946 149.365 189.287 149.355ZM184.797 173.496C184.567 173.727 184.293 173.909 183.992 174.033C183.69 174.156 183.367 174.218 183.041 174.215C182.632 174.217 182.23 174.118 181.868 173.929C181.507 173.739 181.198 173.464 180.968 173.128C180.738 172.791 180.595 172.404 180.552 172C180.508 171.595 180.564 171.186 180.717 170.809C180.869 170.432 181.112 170.097 181.424 169.835C181.737 169.573 182.109 169.392 182.509 169.306C182.908 169.221 183.323 169.235 183.716 169.347C184.109 169.458 184.468 169.664 184.762 169.946L184.797 169.98C185.265 170.438 185.531 171.061 185.538 171.714C185.544 172.367 185.29 172.996 184.831 173.462L184.797 173.496Z" fill="white"/>
<path d="M304.554 149.374L291.84 148.201L286.795 136.53C286.716 136.348 286.586 136.193 286.419 136.084C286.253 135.975 286.058 135.917 285.859 135.917C285.659 135.917 285.464 135.975 285.298 136.084C285.131 136.193 285.001 136.348 284.922 136.53L279.877 148.201L267.163 149.374C266.966 149.393 266.778 149.47 266.623 149.594C266.468 149.718 266.353 149.885 266.292 150.073C266.231 150.261 266.226 150.463 266.279 150.654C266.332 150.845 266.439 151.016 266.588 151.147L276.182 159.533L273.371 171.923C273.327 172.116 273.342 172.318 273.412 172.503C273.482 172.688 273.605 172.849 273.766 172.965C273.927 173.081 274.119 173.148 274.317 173.158C274.516 173.167 274.713 173.118 274.884 173.017L285.865 166.529L296.845 173.017C297.015 173.123 297.214 173.176 297.415 173.169C297.616 173.162 297.81 173.095 297.972 172.978C298.135 172.86 298.259 172.697 298.327 172.509C298.396 172.321 298.407 172.117 298.358 171.923L295.549 159.533L305.149 151.147C305.298 151.016 305.406 150.844 305.458 150.652C305.51 150.461 305.505 150.258 305.443 150.07C305.381 149.881 305.265 149.715 305.109 149.591C304.953 149.468 304.764 149.392 304.566 149.374H304.554Z" fill="#FFDC64"/>
<path d="M286.789 136.53C286.71 136.348 286.579 136.193 286.413 136.084C286.246 135.974 286.052 135.916 285.852 135.916C285.653 135.916 285.458 135.974 285.292 136.084C285.125 136.193 284.994 136.348 284.916 136.53L279.871 148.201L267.157 149.374C266.959 149.393 266.771 149.47 266.617 149.594C266.462 149.718 266.347 149.885 266.286 150.073C266.225 150.261 266.22 150.463 266.273 150.654C266.325 150.845 266.433 151.016 266.582 151.147L276.176 159.533L273.365 171.923C273.321 172.116 273.335 172.317 273.406 172.502C273.476 172.688 273.599 172.848 273.76 172.965C273.921 173.081 274.112 173.148 274.311 173.157C274.51 173.167 274.707 173.118 274.878 173.017L277.328 171.569C277.604 160.69 281.857 150.284 289.291 142.301L286.789 136.53Z" fill="#FFC850"/>
<path d="M355.058 149.373L342.344 148.201L337.299 136.53C337.221 136.347 337.09 136.192 336.924 136.083C336.757 135.974 336.562 135.916 336.363 135.916C336.164 135.916 335.969 135.974 335.802 136.083C335.636 136.192 335.505 136.347 335.427 136.53L330.381 148.201L317.668 149.373C317.47 149.393 317.282 149.47 317.128 149.594C316.973 149.718 316.859 149.885 316.798 150.073C316.737 150.261 316.733 150.463 316.785 150.654C316.838 150.844 316.946 151.016 317.095 151.146L326.688 159.532L323.875 171.922C323.832 172.115 323.847 172.317 323.918 172.502C323.988 172.687 324.112 172.847 324.273 172.963C324.434 173.08 324.625 173.147 324.824 173.156C325.022 173.165 325.219 173.117 325.391 173.016L336.371 166.528L347.351 173.016C347.522 173.117 347.719 173.166 347.918 173.157C348.117 173.147 348.308 173.081 348.469 172.964C348.63 172.848 348.753 172.687 348.824 172.502C348.894 172.317 348.908 172.115 348.865 171.922L346.056 159.532L355.653 151.146C355.803 151.015 355.91 150.843 355.963 150.652C356.015 150.46 356.01 150.258 355.948 150.069C355.886 149.881 355.769 149.714 355.614 149.591C355.458 149.467 355.269 149.391 355.07 149.373H355.058Z" fill="#FFDC64"/>
<path d="M337.292 136.53C337.213 136.347 337.083 136.192 336.916 136.083C336.75 135.974 336.555 135.916 336.356 135.916C336.156 135.916 335.961 135.974 335.795 136.083C335.628 136.192 335.498 136.347 335.419 136.53L330.374 148.201L317.66 149.373C317.463 149.393 317.275 149.47 317.121 149.594C316.966 149.718 316.851 149.885 316.79 150.073C316.73 150.261 316.725 150.463 316.778 150.654C316.831 150.844 316.938 151.016 317.087 151.146L326.681 159.532L323.868 171.922C323.825 172.115 323.84 172.317 323.91 172.502C323.981 172.687 324.104 172.847 324.265 172.963C324.426 173.08 324.618 173.147 324.816 173.156C325.015 173.165 325.212 173.117 325.383 173.016L327.833 171.569C328.108 160.689 332.361 150.283 339.794 142.301L337.292 136.53Z" fill="#FFC850"/>
<path d="M405.564 149.373L392.85 148.201L387.805 136.53C387.726 136.347 387.596 136.192 387.429 136.083C387.263 135.974 387.068 135.916 386.869 135.916C386.669 135.916 386.474 135.974 386.308 136.083C386.142 136.192 386.011 136.347 385.932 136.53L380.887 148.201L368.173 149.373C367.976 149.393 367.788 149.469 367.633 149.593C367.478 149.718 367.363 149.884 367.302 150.072C367.241 150.261 367.236 150.463 367.289 150.653C367.342 150.844 367.449 151.016 367.598 151.146L377.192 159.532L374.381 171.922C374.337 172.115 374.352 172.317 374.422 172.502C374.492 172.687 374.615 172.848 374.776 172.964C374.937 173.081 375.129 173.147 375.328 173.157C375.526 173.166 375.723 173.117 375.894 173.016L386.875 166.528L397.855 173.016C398.025 173.122 398.224 173.175 398.425 173.168C398.626 173.161 398.82 173.095 398.982 172.977C399.145 172.859 399.269 172.696 399.337 172.508C399.406 172.32 399.417 172.116 399.368 171.922L396.561 159.532L406.159 151.146C406.308 151.015 406.416 150.843 406.468 150.652C406.52 150.46 406.515 150.258 406.453 150.069C406.391 149.881 406.275 149.714 406.119 149.591C405.963 149.467 405.774 149.391 405.576 149.373H405.564Z" fill="#FFDC64"/>
<path d="M387.798 136.53C387.719 136.347 387.588 136.192 387.422 136.083C387.255 135.974 387.06 135.916 386.861 135.916C386.662 135.916 386.467 135.974 386.301 136.083C386.134 136.192 386.003 136.347 385.925 136.53L380.88 148.201L368.166 149.373C367.968 149.393 367.78 149.469 367.626 149.593C367.471 149.718 367.356 149.884 367.295 150.072C367.234 150.261 367.229 150.463 367.282 150.653C367.334 150.844 367.442 151.016 367.591 151.146L377.185 159.532L374.374 171.922C374.33 172.115 374.344 172.317 374.415 172.502C374.485 172.687 374.608 172.848 374.769 172.964C374.93 173.081 375.121 173.147 375.32 173.157C375.519 173.166 375.716 173.117 375.887 173.016L378.337 171.569C378.613 160.689 382.866 150.283 390.3 142.301L387.798 136.53Z" fill="#FFC850"/>
<path d="M456.067 149.373L443.353 148.201L438.308 136.53C438.233 136.344 438.104 136.185 437.937 136.074C437.77 135.962 437.574 135.902 437.373 135.902C437.172 135.902 436.975 135.962 436.809 136.074C436.642 136.185 436.513 136.344 436.437 136.53L431.392 148.201L418.679 149.373C418.481 149.393 418.293 149.47 418.139 149.594C417.984 149.718 417.87 149.885 417.809 150.073C417.748 150.261 417.744 150.463 417.796 150.654C417.849 150.844 417.957 151.016 418.106 151.146L427.699 159.532L424.886 171.922C424.829 172.184 424.878 172.457 425.023 172.683C425.168 172.909 425.397 173.068 425.659 173.127C425.913 173.185 426.179 173.143 426.402 173.01L437.382 166.522L448.362 173.01C448.533 173.116 448.731 173.169 448.932 173.162C449.133 173.155 449.327 173.089 449.49 172.971C449.652 172.853 449.776 172.69 449.845 172.502C449.913 172.314 449.924 172.11 449.876 171.916L447.067 159.526L456.664 151.14C456.815 151.009 456.923 150.837 456.976 150.646C457.029 150.454 457.024 150.251 456.961 150.062C456.899 149.873 456.783 149.707 456.626 149.583C456.47 149.46 456.28 149.384 456.081 149.367L456.067 149.373Z" fill="#FFDC64"/>
<path d="M438.301 136.53C438.226 136.344 438.096 136.185 437.93 136.074C437.763 135.962 437.567 135.902 437.366 135.902C437.165 135.902 436.968 135.962 436.802 136.074C436.635 136.185 436.506 136.344 436.43 136.53L431.385 148.201L418.672 149.373C418.474 149.393 418.286 149.47 418.132 149.594C417.977 149.718 417.863 149.885 417.802 150.073C417.741 150.261 417.737 150.463 417.789 150.654C417.842 150.844 417.949 151.016 418.098 151.146L427.692 159.532L424.879 171.922C424.822 172.184 424.871 172.457 425.016 172.683C425.161 172.909 425.389 173.068 425.652 173.127C425.905 173.185 426.171 173.143 426.395 173.01L428.845 171.563C429.119 160.687 433.367 150.284 440.793 142.301L438.301 136.53Z" fill="#FFC850"/>
<path d="M506.582 149.373L493.868 148.201L488.823 136.53C488.744 136.347 488.614 136.192 488.447 136.083C488.281 135.974 488.086 135.916 487.887 135.916C487.687 135.916 487.492 135.974 487.326 136.083C487.16 136.192 487.029 136.347 486.95 136.53L481.905 148.201L469.192 149.373C468.993 149.392 468.805 149.468 468.65 149.593C468.495 149.717 468.38 149.884 468.319 150.072C468.258 150.261 468.254 150.463 468.307 150.654C468.36 150.845 468.468 151.016 468.618 151.146L478.212 159.532L475.399 171.922C475.369 172.052 475.366 172.186 475.389 172.317C475.412 172.448 475.46 172.573 475.532 172.685C475.604 172.797 475.698 172.894 475.808 172.97C475.917 173.046 476.041 173.099 476.172 173.127C476.425 173.184 476.69 173.142 476.913 173.01L487.893 166.522L498.873 173.01C498.988 173.078 499.115 173.123 499.248 173.142C499.38 173.161 499.515 173.154 499.645 173.121C499.775 173.088 499.897 173.029 500.004 172.95C500.111 172.87 500.201 172.77 500.269 172.655C500.403 172.433 500.444 172.168 500.386 171.916L497.579 159.526L507.177 151.14C507.326 151.009 507.434 150.837 507.486 150.646C507.538 150.454 507.533 150.252 507.471 150.063C507.409 149.875 507.293 149.708 507.137 149.585C506.981 149.461 506.792 149.385 506.594 149.367L506.582 149.373Z" fill="#FFDC64"/>
<path d="M488.807 136.53C488.728 136.347 488.597 136.192 488.431 136.083C488.264 135.974 488.07 135.916 487.87 135.916C487.671 135.916 487.476 135.974 487.31 136.083C487.143 136.192 487.012 136.347 486.934 136.53L481.889 148.201L469.175 149.373C468.977 149.392 468.789 149.468 468.634 149.593C468.478 149.717 468.363 149.884 468.302 150.072C468.241 150.261 468.237 150.463 468.291 150.654C468.344 150.845 468.452 151.016 468.602 151.146L478.196 159.532L475.383 171.922C475.353 172.052 475.349 172.186 475.372 172.317C475.395 172.448 475.444 172.573 475.516 172.685C475.588 172.797 475.681 172.894 475.791 172.97C475.901 173.046 476.025 173.099 476.156 173.127C476.408 173.184 476.673 173.142 476.896 173.01L479.348 171.563C479.622 160.683 483.875 150.277 491.309 142.295L488.807 136.53Z" fill="#FFC850"/>
<path opacity="0.2" d="M468.242 121.069C487.894 121.069 503.825 105.217 503.825 85.6629C503.825 66.1084 487.894 50.2563 468.242 50.2563C448.591 50.2563 432.66 66.1084 432.66 85.6629C432.66 105.217 448.591 121.069 468.242 121.069Z" fill="#3BA3DA"/>
<path d="M488.534 105.855C499.741 94.7033 499.741 76.6234 488.534 65.472C477.328 54.3206 459.158 54.3206 447.951 65.4719C436.745 76.6233 436.745 94.7033 447.951 105.855C459.158 117.006 477.328 117.006 488.534 105.855Z" fill="#187DD7"/>
<path d="M474.696 73.0985C473.218 73.0945 471.782 73.5901 470.624 74.5041C469.643 75.2847 468.831 76.2555 468.239 77.3576C467.647 76.2551 466.836 75.2837 465.855 74.5021C464.697 73.5879 463.261 73.0922 461.783 73.0965C457.612 73.0965 454.466 76.4921 454.466 80.9942C454.466 85.8598 458.389 89.1872 464.336 94.2275C465.345 95.083 466.489 96.0549 467.678 97.083C467.835 97.219 468.036 97.294 468.244 97.294C468.452 97.294 468.653 97.219 468.81 97.083C470 96.0468 471.143 95.0749 472.152 94.2275C478.089 89.1872 482.012 85.8598 482.012 80.9942C482.016 76.4941 478.87 73.0985 474.696 73.0985Z" fill="white"/>
<path opacity="0.2" d="M266.225 70.8131C285.876 70.8131 301.807 54.961 301.807 35.4065C301.807 15.852 285.876 0 266.225 0C246.573 0 230.643 15.852 230.643 35.4065C230.643 54.961 246.573 70.8131 266.225 70.8131Z" fill="#2657BD"/>
<path d="M266.225 63.9614C282.073 63.9614 294.921 51.1769 294.921 35.4065C294.921 19.636 282.073 6.85156 266.225 6.85156C250.376 6.85156 237.528 19.636 237.528 35.4065C237.528 51.1769 250.376 63.9614 266.225 63.9614Z" fill="#187DD7"/>
<path d="M265.236 46.2844L278.462 27.0068C278.756 26.5785 278.866 26.0518 278.77 25.5423C278.673 25.0329 278.378 24.5824 277.947 24.2899L276.333 23.1854C276.12 23.0405 275.88 22.9389 275.627 22.8863C275.374 22.8338 275.113 22.8313 274.86 22.879C274.606 22.9268 274.364 23.0238 274.148 23.1646C273.932 23.3054 273.746 23.4871 273.601 23.6995L262.661 39.6437L257.852 36.2299C257.427 35.9291 256.899 35.8083 256.385 35.8942C255.871 35.98 255.412 36.2654 255.109 36.6878L253.963 38.2782C253.813 38.4873 253.706 38.7237 253.648 38.9741C253.589 39.2244 253.581 39.4837 253.624 39.7371C253.666 39.9905 253.759 40.2331 253.895 40.4511C254.032 40.669 254.211 40.8579 254.421 41.0072L262.534 46.7623C262.738 46.9089 262.969 47.014 263.214 47.0716C263.459 47.1291 263.713 47.138 263.962 47.0977C264.211 47.0574 264.449 46.9688 264.663 46.8368C264.877 46.7048 265.063 46.5321 265.21 46.3286L265.236 46.2844Z" fill="white"/>
<path opacity="0.2" d="M281.146 314.096C300.798 314.096 316.728 298.244 316.728 278.69C316.728 259.135 300.798 243.283 281.146 243.283C261.495 243.283 245.564 259.135 245.564 278.69C245.564 298.244 261.495 314.096 281.146 314.096Z" fill="#4476DC"/>
<path d="M281.146 307.245C296.995 307.245 309.843 294.46 309.843 278.69C309.843 262.919 296.995 250.135 281.146 250.135C265.297 250.135 252.449 262.919 252.449 278.69C252.449 294.46 265.297 307.245 281.146 307.245Z" fill="#4476DC"/>
<path d="M281.146 292.395C288.753 292.395 294.919 286.259 294.919 278.69C294.919 271.121 288.753 264.985 281.146 264.985C273.539 264.985 267.373 271.121 267.373 278.69C267.373 286.259 273.539 292.395 281.146 292.395Z" fill="white"/>
<path d="M288.762 276.332C288.53 276.332 288.307 276.24 288.143 276.077C287.979 275.913 287.886 275.692 287.886 275.461C287.894 275.227 287.855 274.994 287.771 274.776C287.686 274.558 287.559 274.359 287.396 274.191C287.233 274.023 287.037 273.89 286.821 273.799C286.605 273.707 286.372 273.66 286.138 273.66C285.903 273.66 285.671 273.707 285.454 273.799C285.238 273.89 285.043 274.023 284.88 274.191C284.717 274.359 284.589 274.558 284.505 274.776C284.42 274.994 284.381 275.227 284.389 275.461C284.395 275.578 284.376 275.696 284.335 275.807C284.294 275.917 284.23 276.018 284.148 276.104C284.066 276.189 283.968 276.257 283.859 276.304C283.75 276.35 283.633 276.374 283.514 276.374C283.396 276.374 283.278 276.35 283.169 276.304C283.06 276.257 282.962 276.189 282.88 276.104C282.798 276.018 282.735 275.917 282.694 275.807C282.652 275.696 282.634 275.578 282.639 275.461C282.639 274.537 283.008 273.65 283.665 272.997C284.322 272.344 285.212 271.977 286.141 271.977C287.069 271.977 287.96 272.344 288.617 272.997C289.273 273.65 289.642 274.537 289.642 275.461C289.641 275.691 289.549 275.912 289.386 276.076C289.222 276.239 289 276.331 288.768 276.332H288.762Z" fill="#4476DC"/>
<path d="M278.266 276.332C278.151 276.332 278.038 276.31 277.932 276.266C277.825 276.222 277.729 276.158 277.648 276.077C277.567 275.996 277.502 275.9 277.458 275.794C277.415 275.688 277.392 275.575 277.393 275.461C277.393 274.999 277.208 274.556 276.88 274.23C276.552 273.903 276.107 273.72 275.643 273.72C275.179 273.72 274.734 273.903 274.406 274.23C274.078 274.556 273.893 274.999 273.893 275.461C273.893 275.691 273.801 275.913 273.637 276.076C273.473 276.239 273.251 276.33 273.019 276.33C272.788 276.33 272.565 276.239 272.401 276.076C272.238 275.913 272.146 275.691 272.146 275.461C272.134 274.996 272.217 274.534 272.387 274.102C272.558 273.67 272.814 273.276 273.141 272.943C273.467 272.611 273.856 272.347 274.287 272.166C274.717 271.986 275.179 271.893 275.646 271.893C276.113 271.893 276.575 271.986 277.005 272.166C277.435 272.347 277.825 272.611 278.151 272.943C278.477 273.276 278.733 273.67 278.904 274.102C279.075 274.534 279.157 274.996 279.146 275.461C279.146 275.691 279.055 275.912 278.891 276.076C278.728 276.239 278.506 276.331 278.274 276.332H278.266Z" fill="#4476DC"/>
<path d="M290.841 281.029C290.759 280.922 290.654 280.836 290.533 280.776C290.412 280.717 290.279 280.686 290.144 280.686H271.639C271.524 280.686 271.41 280.709 271.303 280.753C271.197 280.797 271.101 280.862 271.02 280.943C270.938 281.024 270.874 281.121 270.83 281.227C270.787 281.333 270.765 281.447 270.765 281.561C270.765 281.639 270.776 281.717 270.797 281.792C271.424 283.974 272.747 285.894 274.568 287.26C276.389 288.627 278.607 289.366 280.888 289.366C283.168 289.366 285.387 288.627 287.207 287.26C289.028 285.894 290.352 283.974 290.978 281.792C291.017 281.663 291.024 281.527 291.001 281.394C290.977 281.262 290.922 281.137 290.841 281.029Z" fill="#4476DC"/>
<path d="M96.4025 456.869C96.4025 456.869 90.7399 459.496 92.77 472.439C104.156 474.664 131.797 474.064 133.244 471.435C134.455 465.359 107.99 460.307 105.926 456.869C103.861 453.431 96.4025 456.869 96.4025 456.869Z" fill="#052C4B"/>
<path d="M44.226 449.544C44.226 449.544 39.9134 450.186 41.1626 464.247C48.0239 469.032 80.3771 469.813 81.707 467.323C84.1287 461.869 61.0564 459.09 56.2797 449.546C52.845 443.389 44.226 449.544 44.226 449.544Z" fill="#052C4B"/>
<path d="M104.608 458.757C104.608 458.757 98.917 459.622 95.2563 458.757C94.0454 452.632 81.6345 322.749 81.6345 316.882C80.6255 328.818 59.0667 448.788 57.0346 452.226C55.0024 455.664 44.2261 450.821 44.2261 450.821C44.2261 450.821 48.4862 276.22 49.5053 273.186C50.5244 270.151 112.325 266.304 112.325 266.304C112.325 266.304 107.516 419.133 107.516 426.997C107.516 434.86 104.608 458.757 104.608 458.757Z" fill="#01993E"/>
<path d="M93.5874 265.19C93.5874 265.19 106.364 444.311 104.62 458.757C110.712 456.881 120.575 264.587 120.232 261.161C119.889 257.736 93.5874 265.19 93.5874 265.19Z" fill="#018837"/>
<path d="M178.409 146.419C178.409 146.419 184.06 138.789 188.51 138.473C192.96 138.158 198.501 137.724 198.691 143.353C198.88 148.982 189.454 147.668 187.188 147.48C184.922 147.291 181.909 149.544 181.909 149.544L178.409 146.419Z" fill="#FFD0A6"/>
<path d="M116.113 164.743C116.113 164.743 175.173 142.855 178.607 141.835C182.042 140.815 184.107 151.072 184.107 151.072C184.107 151.072 145.966 177.057 129.47 179.449C112.975 181.84 116.113 164.743 116.113 164.743Z" fill="#018837"/>
<path d="M211.733 145.52C211.733 145.52 211.128 133.786 212.944 133.184C214.76 132.582 214.781 137.64 215.995 138.04C217.21 138.439 219.86 134.803 218.635 131.566C217.41 128.328 225.955 131.566 225.955 137.028C225.955 142.49 212.94 147.751 212.94 147.751L211.733 145.52Z" fill="#FFD0A6"/>
<path d="M83.4628 154.498C83.4628 154.498 67.3185 156.898 61.1271 161.679C54.9358 166.46 46.01 203.045 49.1016 276.899C77.6206 293.996 126.754 265.617 126.754 265.617C126.754 265.617 111.98 217.409 114.04 195.869C119.537 202.365 146.682 213.99 157.335 209.202C167.988 204.415 217.011 147.265 217.011 147.265L210.668 142.793C210.668 142.793 161.244 184.083 154.635 184.609C148.026 185.135 124.907 160.558 114.042 156.994C106.022 154.454 83.4628 154.498 83.4628 154.498Z" fill="#009F40"/>
<path d="M105.613 115.376C105.613 115.376 110.052 140.564 101.137 145.118C99.2728 145.911 97.2671 146.321 95.24 146.323V156.639C90.9396 160 80.3065 156.133 80.3065 156.133V141.777C80.3065 141.777 76.2341 130.266 78.3631 122.991C80.4922 115.716 89.3756 111.39 94.3723 111.206C99.3689 111.021 105.613 115.376 105.613 115.376Z" fill="#FFD0A6"/>
<path d="M79.3621 144.371C79.3621 144.371 60.3663 134.811 66.1742 114.364C68.2064 107.081 73.4916 108.093 73.4916 108.093C73.4916 108.093 72.3454 95.2736 86.5019 93.1229C98.0754 91.8658 111.104 91.0987 115.578 106.475C120.052 121.851 95.4499 118.122 94.0413 119.049C92.6327 119.977 99.2075 125.74 97.3247 130.252C93.2604 124.806 88.0982 123.401 86.5019 126.517C84.5 130.875 92.32 136.321 92.9455 139.124C93.5711 144.413 86.0842 147.833 79.0372 144.369" fill="#3E150F"/>
<path d="M54.3828 450.214C54.3828 450.214 62.9151 346.258 72.7026 328.87C76.7387 318.591 82.2883 314.249 82.2883 314.249C82.2883 314.249 59.1736 450.397 57.2242 451.706C55.2748 453.016 54.3828 450.214 54.3828 450.214Z" fill="#018837"/>
<path d="M95.24 146.335C90.984 147.474 86.54 147.741 82.1772 147.12C87.5614 150.562 95.24 150.692 95.24 150.692V146.335Z" fill="#F2B37A"/>
<path d="M113.683 196.015C113.683 196.015 111.677 211.718 98.2126 234.689C84.7482 257.659 103.431 244.528 108.377 255.476C113.324 266.425 88.4917 280.176 88.4917 280.176C101.58 276.493 114.272 271.536 126.382 265.374C122.11 251.647 111.174 215.453 113.669 196.021" fill="#018837"/>
<path d="M180.89 57.8581C184.476 54.29 184.476 48.5049 180.89 44.9368C177.304 41.3686 171.491 41.3686 167.905 44.9368C164.319 48.5049 164.319 54.29 167.905 57.8581C171.491 61.4263 177.304 61.4263 180.89 57.8581Z" fill="white"/>
<path d="M174.398 59.3912C178.835 59.3912 182.431 55.8121 182.431 51.397C182.431 46.982 178.835 43.4028 174.398 43.4028C169.961 43.4028 166.364 46.982 166.364 51.397C166.364 55.8121 169.961 59.3912 174.398 59.3912Z" stroke="#DA42E6" stroke-width="12"/>
<path d="M395.535 268.017C399.12 264.449 399.12 258.664 395.535 255.096C391.949 251.528 386.135 251.528 382.549 255.096C378.963 258.664 378.963 264.449 382.549 268.017C386.135 271.585 391.949 271.585 395.535 268.017Z" fill="white"/>
<path d="M396.99 262.855C397.701 258.496 394.727 254.389 390.346 253.681C385.965 252.974 381.837 255.934 381.126 260.293C380.415 264.652 383.39 268.759 387.771 269.467C392.151 270.175 396.279 267.214 396.99 262.855Z" stroke="#DA42E6" stroke-width="12"/>
<path d="M203.954 263.452H199.076C199.039 263.452 199.001 263.445 198.966 263.431C198.931 263.416 198.9 263.395 198.873 263.368C198.847 263.342 198.825 263.31 198.811 263.275C198.797 263.24 198.79 263.203 198.79 263.165V258.312C198.79 257.933 198.639 257.57 198.37 257.302C198.101 257.034 197.736 256.884 197.355 256.884C196.975 256.884 196.61 257.034 196.341 257.302C196.071 257.57 195.92 257.933 195.92 258.312V263.165C195.92 263.241 195.89 263.315 195.836 263.368C195.782 263.422 195.708 263.452 195.632 263.452H190.758C190.565 263.445 190.373 263.477 190.193 263.545C190.013 263.614 189.848 263.718 189.709 263.851C189.57 263.984 189.459 264.144 189.384 264.32C189.308 264.497 189.27 264.687 189.27 264.879C189.27 265.071 189.308 265.261 189.384 265.438C189.459 265.615 189.57 265.774 189.709 265.908C189.848 266.041 190.013 266.145 190.193 266.213C190.373 266.282 190.565 266.313 190.758 266.306H195.636C195.674 266.306 195.711 266.313 195.746 266.328C195.781 266.342 195.813 266.363 195.84 266.39C195.867 266.417 195.888 266.448 195.902 266.483C195.917 266.518 195.924 266.555 195.924 266.593V271.447C195.924 271.825 196.075 272.188 196.345 272.456C196.614 272.724 196.979 272.874 197.359 272.874C197.74 272.874 198.105 272.724 198.374 272.456C198.643 272.188 198.794 271.825 198.794 271.447V266.593C198.794 266.556 198.801 266.518 198.815 266.483C198.829 266.449 198.851 266.417 198.877 266.39C198.904 266.364 198.935 266.342 198.97 266.328C199.005 266.313 199.043 266.306 199.081 266.306H203.958C204.151 266.313 204.343 266.282 204.523 266.213C204.704 266.145 204.868 266.041 205.007 265.908C205.146 265.774 205.257 265.615 205.332 265.438C205.408 265.261 205.447 265.071 205.447 264.879C205.447 264.687 205.408 264.497 205.332 264.32C205.257 264.144 205.146 263.984 205.007 263.851C204.868 263.718 204.704 263.614 204.523 263.545C204.343 263.477 204.151 263.445 203.958 263.452H203.954Z" fill="#DA42E6"/>
<path d="M542.565 38.4447H537.687C537.611 38.4447 537.538 38.4147 537.484 38.3613C537.43 38.3078 537.399 38.2353 537.399 38.1595V33.304C537.399 33.1165 537.362 32.9308 537.29 32.7576C537.217 32.5844 537.112 32.427 536.979 32.2944C536.845 32.1618 536.687 32.0566 536.513 31.9849C536.339 31.9131 536.152 31.8762 535.964 31.8762C535.776 31.8762 535.589 31.9131 535.415 31.9849C535.241 32.0566 535.083 32.1618 534.949 32.2944C534.816 32.427 534.71 32.5844 534.638 32.7576C534.566 32.9308 534.529 33.1165 534.529 33.304V38.1595C534.529 38.2351 534.499 38.3077 534.445 38.3611C534.391 38.4146 534.319 38.4447 534.243 38.4447H529.365C528.984 38.4447 528.62 38.5951 528.35 38.8628C528.081 39.1306 527.93 39.4937 527.93 39.8724C527.93 40.2511 528.081 40.6142 528.35 40.882C528.62 41.1497 528.984 41.3001 529.365 41.3001H534.243C534.28 41.2999 534.318 41.3071 534.353 41.3213C534.387 41.3356 534.419 41.3565 534.446 41.3831C534.473 41.4096 534.494 41.4411 534.508 41.4759C534.522 41.5106 534.529 41.5478 534.529 41.5853V46.4328C534.529 46.6203 534.566 46.806 534.638 46.9792C534.71 47.1524 534.816 47.3098 534.949 47.4424C535.083 47.575 535.241 47.6801 535.415 47.7519C535.589 47.8236 535.776 47.8606 535.964 47.8606C536.152 47.8606 536.339 47.8236 536.513 47.7519C536.687 47.6801 536.845 47.575 536.979 47.4424C537.112 47.3098 537.217 47.1524 537.29 46.9792C537.362 46.806 537.399 46.6203 537.399 46.4328V41.5853C537.399 41.5477 537.406 41.5104 537.421 41.4757C537.435 41.441 537.457 41.4095 537.483 41.383C537.51 41.3564 537.542 41.3355 537.577 41.3213C537.612 41.3071 537.65 41.2999 537.687 41.3001H542.565C542.946 41.3001 543.311 41.1497 543.58 40.882C543.849 40.6142 544 40.2511 544 39.8724C544 39.4937 543.849 39.1306 543.58 38.8628C543.311 38.5951 542.946 38.4447 542.565 38.4447Z" fill="#DA42E6"/>
</svg>
